<svg width="25" height="24" viewBox="0 0 25 24" fill="none" xmlns="http://www.w3.org/2000/svg">
<path d="M9.625 21V15C9.625 14.4696 9.83571 13.9609 10.2108 13.5858C10.5859 13.2107 11.0946 13 11.625 13H13.625C14.1554 13 14.6641 13.2107 15.0392 13.5858C15.4143 13.9609 15.625 14.4696 15.625 15V21M5.625 12H3.625L12.625 3L21.625 12H19.625V19C19.625 19.5304 19.4143 20.0391 19.0392 20.4142C18.6641 20.7893 18.1554 21 17.625 21H7.625C7.09457 21 6.58586 20.7893 6.21079 20.4142C5.83571 20.0391 5.625 19.5304 5.625 19V12Z" stroke="#A4ACB9" stroke-width="2" stroke-linecap="round" stroke-linejoin="round"/>
</svg>
